<svg xmlns="http://www.w3.org/2000/svg" width="512" height="512" viewBox="0 0 512 512">
<defs>
  <filter id="glow" x="-50%" y="-50%" width="200%" height="200%">
    <feGaussianBlur stdDeviation="2" result="blur"/><feMerge><feMergeNode in="blur"/><feMergeNode in="SourceGraphic"/></feMerge>
  </filter>
</defs>
<path d="M 115.08,220.96 L 115.08,227.82 L 121.18,252.95 L 122.70,290.28 L 121.18,376.35 L 120.41,384.73 L 118.89,388.54 L 128.03,397.68 L 137.93,405.30 L 147.84,411.39 L 155.45,414.44 L 156.98,307.80 L 159.26,284.18 L 157.74,284.18 L 153.17,301.70 L 149.36,325.32 L 147.84,352.74 L 145.55,355.79 L 140.22,355.79 L 137.93,353.50 L 137.93,340.55 L 140.98,291.80 L 146.31,272.76 L 156.21,254.48 L 157.74,246.10 L 157.74,230.10 L 154.69,221.72 L 149.36,217.15 L 135.65,218.68 L 128.79,220.96 L 121.94,221.72 Z" fill="#FFFFFF" fill-opacity="0.15" stroke="none"/>
<path d="M 140.98,192.02 L 134.12,192.02 L 124.98,195.82 L 118.13,203.44 L 115.84,211.06 L 126.51,211.06 L 135.65,208.01 L 138.70,208.01 L 140.98,210.30 L 144.03,209.54 L 144.79,205.73 L 140.98,198.11 Z" fill="#FFFFFF" fill-opacity="0.15" stroke="none"/>
<path d="M 151.64,188.97 L 150.88,195.82 L 153.17,201.16 L 155.45,203.44 L 173.73,206.49 L 192.02,214.87 L 192.02,201.16 L 189.73,194.30 L 186.68,189.73 L 181.35,185.16 L 170.69,181.35 L 163.83,181.35 L 158.50,182.88 Z" fill="#FFFFFF" fill-opacity="0.15" stroke="none"/>
<path d="M 224.77,163.83 L 221.72,168.40 L 220.96,174.50 L 230.86,179.07 L 238.48,187.45 L 240.77,194.30 L 240.00,204.20 L 234.67,211.82 L 230.86,211.82 L 228.58,209.54 L 228.58,201.92 L 225.53,195.82 L 222.48,194.30 L 217.91,194.30 L 212.58,198.87 L 212.58,216.39 L 210.30,224.77 L 205.73,233.15 L 195.82,243.81 L 190.49,252.19 L 187.45,252.19 L 188.21,256.76 L 191.25,256.76 L 194.30,259.81 L 198.11,271.23 L 202.68,280.38 L 213.34,294.85 L 236.96,312.37 L 259.05,335.98 L 272.76,357.31 L 281.14,374.83 L 287.23,393.11 L 289.52,396.92 L 298.66,404.54 L 303.23,406.06 L 309.32,405.30 L 314.65,400.73 L 319.98,393.11 L 330.65,371.02 L 339.03,341.31 L 344.36,308.56 L 346.64,282.66 L 347.41,252.95 L 344.36,236.96 L 336.74,219.44 L 332.17,203.44 L 331.41,190.49 L 333.70,188.97 L 333.70,187.45 L 315.41,180.59 L 293.32,169.16 L 285.71,172.97 L 281.14,177.54 L 276.57,188.97 L 273.52,192.02 L 274.28,199.63 L 277.33,202.68 L 292.56,201.92 L 306.27,204.96 L 316.94,211.06 L 322.27,216.39 L 322.27,219.44 L 320.75,220.96 L 316.18,220.96 L 309.32,217.91 L 294.85,214.87 L 286.47,215.63 L 278.09,218.68 L 271.23,223.25 L 264.38,230.10 L 252.19,247.62 L 246.10,260.57 L 245.34,272.76 L 249.91,286.47 L 254.48,293.32 L 268.19,308.56 L 275.04,320.75 L 275.80,324.55 L 280.38,329.89 L 288.75,343.60 L 288.75,348.17 L 285.71,351.21 L 282.66,351.21 L 278.85,347.41 L 271.23,334.46 L 262.09,323.03 L 233.91,295.61 L 226.29,281.90 L 224.77,275.80 L 224.77,259.05 L 226.29,252.95 L 233.91,236.96 L 240.77,227.82 L 248.38,220.20 L 253.71,211.06 L 256.76,200.39 L 256.76,190.49 L 252.95,182.11 L 245.34,172.97 L 232.39,164.59 L 228.58,163.07 Z" fill="#FFFFFF" fill-opacity="0.15" stroke="none"/>
<path d="M 160.02,110.51 L 160.79,114.32 L 165.36,118.13 L 186.68,115.08 L 211.82,115.08 L 231.62,118.89 L 267.43,133.36 L 327.60,165.36 L 352.74,173.73 L 355.79,173.73 L 357.31,168.40 L 350.45,167.64 L 332.17,160.02 L 328.36,156.98 L 328.36,151.64 L 329.89,150.12 L 334.46,149.36 L 345.88,155.45 L 356.55,158.50 L 362.64,158.50 L 375.59,151.64 L 381.68,151.64 L 383.97,153.93 L 383.97,158.50 L 381.68,160.79 L 377.88,161.55 L 372.54,164.59 L 367.97,169.93 L 366.45,174.50 L 367.97,181.35 L 370.26,183.64 L 375.59,185.92 L 381.68,185.92 L 388.54,182.88 L 392.35,179.07 L 396.16,171.45 L 396.92,163.07 L 395.39,156.98 L 392.35,151.64 L 388.54,147.84 L 383.97,145.55 L 374.83,145.55 L 363.40,148.60 L 354.26,148.60 L 339.79,145.55 L 328.36,140.22 L 315.41,131.84 L 294.85,121.18 L 275.04,112.80 L 254.48,105.94 L 224.77,99.85 L 192.02,99.09 L 165.36,104.42 L 161.55,106.70 Z" fill="#FFFFFF" fill-opacity="0.15" stroke="none"/>
<path d="M 163.07,421.29 L 159.26,422.05" fill="none" stroke="#00D4FF" stroke-width="3.8" stroke-linecap="round" stroke-linejoin="round" filter="url(#glow)"/>
<path d="M 307.04,415.20 L 310.08,415.20" fill="none" stroke="#00D4FF" stroke-width="3.8" stroke-linecap="round" stroke-linejoin="round" filter="url(#glow)"/>
<path d="M 299.42,415.20 L 302.46,415.20" fill="none" stroke="#00D4FF" stroke-width="3.8" stroke-linecap="round" stroke-linejoin="round" filter="url(#glow)"/>
<path d="M 165.36,415.20 L 165.36,418.25" fill="none" stroke="#00D4FF" stroke-width="3.8" stroke-linecap="round" stroke-linejoin="round" filter="url(#glow)"/>
<path d="M 321.51,407.58 L 317.70,411.39" fill="none" stroke="#00D4FF" stroke-width="3.8" stroke-linecap="round" stroke-linejoin="round" filter="url(#glow)"/>
<path d="M 165.36,404.54 L 165.36,412.15" fill="none" stroke="#00D4FF" stroke-width="3.8" stroke-linecap="round" stroke-linejoin="round" filter="url(#glow)"/>
<path d="M 281.90,403.01 L 288.75,409.87" fill="none" stroke="#00D4FF" stroke-width="3.8" stroke-linecap="round" stroke-linejoin="round" filter="url(#glow)"/>
<path d="M 118.89,388.54 L 128.03,397.68" fill="none" stroke="#00D4FF" stroke-width="3.8" stroke-linecap="round" stroke-linejoin="round" filter="url(#glow)"/>
<path d="M 165.36,387.02 L 165.36,399.20" fill="none" stroke="#00D4FF" stroke-width="3.8" stroke-linecap="round" stroke-linejoin="round" filter="url(#glow)"/>
<path d="M 111.27,386.25 L 112.80,387.78 L 117.37,387.78 L 112.80,387.78" fill="none" stroke="#00D4FF" stroke-width="3.8" stroke-linecap="round" stroke-linejoin="round" filter="url(#glow)"/>
<path d="M 166.12,374.83 L 166.12,382.45" fill="none" stroke="#00D4FF" stroke-width="3.8" stroke-linecap="round" stroke-linejoin="round" filter="url(#glow)"/>
<path d="M 111.27,368.73 L 111.27,378.64" fill="none" stroke="#00D4FF" stroke-width="3.8" stroke-linecap="round" stroke-linejoin="round" filter="url(#glow)"/>
<path d="M 290.28,360.36 L 293.32,360.36 L 296.37,363.40 L 297.13,367.97 L 294.09,371.02 L 291.04,371.02 L 287.99,367.97 L 287.23,363.40" fill="none" stroke="#00D4FF" stroke-width="3.8" stroke-linecap="round" stroke-linejoin="round" filter="url(#glow)"/>
<path d="M 289.52,360.36 L 287.23,363.40 L 287.99,368.73 L 290.28,371.02 L 294.85,371.02 L 297.13,367.97 L 296.37,362.64 L 294.09,360.36" fill="none" stroke="#00D4FF" stroke-width="3.8" stroke-linecap="round" stroke-linejoin="round" filter="url(#glow)"/>
<path d="M 166.12,360.36 L 166.12,371.78" fill="none" stroke="#00D4FF" stroke-width="3.8" stroke-linecap="round" stroke-linejoin="round" filter="url(#glow)"/>
<path d="M 112.04,339.03 L 112.04,343.60" fill="none" stroke="#00D4FF" stroke-width="3.8" stroke-linecap="round" stroke-linejoin="round" filter="url(#glow)"/>
<path d="M 166.12,338.27 L 166.12,354.26" fill="none" stroke="#00D4FF" stroke-width="3.8" stroke-linecap="round" stroke-linejoin="round" filter="url(#glow)"/>
<path d="M 245.34,335.22 L 247.62,337.50" fill="none" stroke="#00D4FF" stroke-width="3.8" stroke-linecap="round" stroke-linejoin="round" filter="url(#glow)"/>
<path d="M 350.45,330.65 L 350.45,333.70" fill="none" stroke="#00D4FF" stroke-width="3.8" stroke-linecap="round" stroke-linejoin="round" filter="url(#glow)"/>
<path d="M 351.21,326.08 L 351.21,329.12" fill="none" stroke="#00D4FF" stroke-width="3.8" stroke-linecap="round" stroke-linejoin="round" filter="url(#glow)"/>
<path d="M 231.62,320.75 L 243.81,332.93" fill="none" stroke="#00D4FF" stroke-width="3.8" stroke-linecap="round" stroke-linejoin="round" filter="url(#glow)"/>
<path d="M 112.80,319.98 L 112.80,324.55" fill="none" stroke="#00D4FF" stroke-width="3.8" stroke-linecap="round" stroke-linejoin="round" filter="url(#glow)"/>
<path d="M 227.05,316.94 L 229.34,319.22" fill="none" stroke="#00D4FF" stroke-width="3.8" stroke-linecap="round" stroke-linejoin="round" filter="url(#glow)"/>
<path d="M 209.54,303.99 L 212.58,307.04" fill="none" stroke="#00D4FF" stroke-width="3.8" stroke-linecap="round" stroke-linejoin="round" filter="url(#glow)"/>
<path d="M 166.88,303.99 L 166.88,328.36" fill="none" stroke="#00D4FF" stroke-width="3.8" stroke-linecap="round" stroke-linejoin="round" filter="url(#glow)"/>
<path d="M 112.80,303.99 L 112.80,308.56" fill="none" stroke="#00D4FF" stroke-width="3.8" stroke-linecap="round" stroke-linejoin="round" filter="url(#glow)"/>
<path d="M 201.92,296.37 L 204.20,298.66" fill="none" stroke="#00D4FF" stroke-width="3.8" stroke-linecap="round" stroke-linejoin="round" filter="url(#glow)"/>
<path d="M 355.02,295.61 L 355.02,300.18" fill="none" stroke="#00D4FF" stroke-width="3.8" stroke-linecap="round" stroke-linejoin="round" filter="url(#glow)"/>
<path d="M 167.64,294.09 L 167.64,301.70" fill="none" stroke="#00D4FF" stroke-width="3.8" stroke-linecap="round" stroke-linejoin="round" filter="url(#glow)"/>
<path d="M 168.40,287.99 L 168.40,291.04" fill="none" stroke="#00D4FF" stroke-width="3.8" stroke-linecap="round" stroke-linejoin="round" filter="url(#glow)"/>
<path d="M 355.79,284.18 L 355.79,291.04" fill="none" stroke="#00D4FF" stroke-width="3.8" stroke-linecap="round" stroke-linejoin="round" filter="url(#glow)"/>
<path d="M 356.55,275.80 L 356.55,278.85" fill="none" stroke="#00D4FF" stroke-width="3.8" stroke-linecap="round" stroke-linejoin="round" filter="url(#glow)"/>
<path d="M 112.04,272.76 L 112.04,277.33" fill="none" stroke="#00D4FF" stroke-width="3.8" stroke-linecap="round" stroke-linejoin="round" filter="url(#glow)"/>
<path d="M 356.55,271.23 L 356.55,274.28" fill="none" stroke="#00D4FF" stroke-width="3.8" stroke-linecap="round" stroke-linejoin="round" filter="url(#glow)"/>
<path d="M 356.55,262.09 L 356.55,268.95" fill="none" stroke="#00D4FF" stroke-width="3.8" stroke-linecap="round" stroke-linejoin="round" filter="url(#glow)"/>
<path d="M 163.07,261.33 L 163.83,260.57 L 164.59,262.09 L 163.83,262.86" fill="none" stroke="#00D4FF" stroke-width="3.8" stroke-linecap="round" stroke-linejoin="round" filter="url(#glow)"/>
<path d="M 165.36,259.81 L 164.59,261.33 L 163.83,259.81 L 156.98,272.00 L 152.41,284.95 L 150.12,297.13 L 149.36,315.41 L 150.12,297.13 L 152.41,284.95 L 158.50,269.71 L 163.07,262.09 L 163.83,262.86 L 160.79,275.04 L 157.74,302.46 L 156.98,383.21 L 155.45,415.20 L 156.21,415.20 L 157.74,302.46 L 161.55,270.47" fill="none" stroke="#00D4FF" stroke-width="3.8" stroke-linecap="round" stroke-linejoin="round" filter="url(#glow)"/>
<path d="M 110.51,248.38 L 110.51,251.43" fill="none" stroke="#00D4FF" stroke-width="3.8" stroke-linecap="round" stroke-linejoin="round" filter="url(#glow)"/>
<path d="M 356.55,247.62 L 356.55,257.52" fill="none" stroke="#00D4FF" stroke-width="3.8" stroke-linecap="round" stroke-linejoin="round" filter="url(#glow)"/>
<path d="M 355.79,243.05 L 355.79,246.10" fill="none" stroke="#00D4FF" stroke-width="3.8" stroke-linecap="round" stroke-linejoin="round" filter="url(#glow)"/>
<path d="M 222.48,214.11 L 225.53,217.15 L 225.53,218.68 L 222.48,222.48 L 218.68,224.01 L 214.87,220.96 L 214.87,217.91 L 218.68,214.11" fill="none" stroke="#00D4FF" stroke-width="3.8" stroke-linecap="round" stroke-linejoin="round" filter="url(#glow)"/>
<path d="M 223.25,214.11 L 217.91,214.11 L 215.63,215.63 L 214.87,221.72 L 216.39,223.25 L 219.44,224.01 L 224.77,220.96 L 225.53,217.15" fill="none" stroke="#00D4FF" stroke-width="3.8" stroke-linecap="round" stroke-linejoin="round" filter="url(#glow)"/>
<path d="M 146.31,208.01 L 149.36,211.06 L 156.98,214.11 L 166.88,214.87 L 175.26,217.15 L 187.45,224.77 L 176.02,233.15 L 162.31,246.86 L 157.74,252.95 L 156.98,249.14 L 158.50,234.67 L 157.74,228.58 L 154.69,220.96 L 150.12,217.15 L 147.07,216.39 L 142.50,217.91 L 139.46,217.15 L 141.74,214.11 L 141.74,211.06" fill="none" stroke="#00D4FF" stroke-width="3.8" stroke-linecap="round" stroke-linejoin="round" filter="url(#glow)"/>
<path d="M 187.45,194.30 L 185.92,199.63 L 179.07,207.25 L 185.92,200.39" fill="none" stroke="#00D4FF" stroke-width="3.8" stroke-linecap="round" stroke-linejoin="round" filter="url(#glow)"/>
<path d="M 140.98,192.02 L 141.74,198.87 L 146.31,208.01 L 141.74,211.06 L 139.46,208.77 L 134.89,208.77 L 124.22,211.82 L 116.61,211.82 L 115.08,210.30 L 118.89,201.92 L 125.75,195.06 L 132.60,192.02 L 136.41,191.25" fill="none" stroke="#00D4FF" stroke-width="3.8" stroke-linecap="round" stroke-linejoin="round" filter="url(#glow)"/>
<path d="M 140.98,191.25 L 132.60,192.02 L 124.98,195.06 L 118.89,201.16 L 115.08,210.30 L 116.61,211.82 L 124.22,211.82 L 134.89,208.77 L 138.70,208.77 L 141.74,211.82 L 141.74,214.11 L 138.70,217.91 L 124.98,220.96 L 114.32,220.96 L 114.32,226.29 L 120.41,251.43 L 121.94,278.09 L 120.41,381.68 L 118.89,387.02 L 120.41,381.68 L 121.94,278.09 L 120.41,251.43 L 115.84,233.91 L 114.32,221.72 L 124.98,220.96 L 139.46,217.15 L 142.50,217.91 L 147.07,216.39 L 150.88,217.91 L 154.69,221.72 L 157.74,228.58 L 158.50,240.77 L 156.98,254.48 L 150.88,263.62 L 145.55,275.80 L 140.98,295.61 L 137.93,349.69 L 138.70,354.26 L 140.98,355.79 L 144.79,355.79 L 147.07,353.50 L 149.36,320.75 L 151.64,313.89 L 153.93,296.37 L 157.74,284.95 L 153.93,296.37 L 151.64,313.89 L 149.36,320.75 L 147.84,349.69 L 147.07,352.74 L 144.03,355.79 L 140.98,355.79 L 137.93,351.21 L 141.74,290.28 L 145.55,275.80 L 156.98,253.71 L 176.78,233.15 L 187.45,225.53 L 187.45,224.01 L 175.26,217.15 L 166.88,214.87 L 156.98,214.11 L 150.12,211.06 L 144.79,205.73 L 142.50,201.16" fill="none" stroke="#00D4FF" stroke-width="3.8" stroke-linecap="round" stroke-linejoin="round" filter="url(#glow)"/>
<path d="M 118.13,188.97 L 112.04,195.06" fill="none" stroke="#00D4FF" stroke-width="3.8" stroke-linecap="round" stroke-linejoin="round" filter="url(#glow)"/>
<path d="M 358.83,185.92 L 364.16,191.25" fill="none" stroke="#00D4FF" stroke-width="3.8" stroke-linecap="round" stroke-linejoin="round" filter="url(#glow)"/>
<path d="M 399.96,185.16 L 394.63,190.49" fill="none" stroke="#00D4FF" stroke-width="3.8" stroke-linecap="round" stroke-linejoin="round" filter="url(#glow)"/>
<path d="M 150.88,189.73 L 153.93,185.92 L 161.55,181.35 L 168.40,180.59 L 177.54,182.88 L 183.64,186.68 L 190.49,195.06 L 192.78,202.68 L 192.78,214.87 L 191.25,215.63 L 184.40,211.06 L 174.50,207.25 L 156.21,204.20 L 150.88,197.35 L 150.12,194.30" fill="none" stroke="#00D4FF" stroke-width="3.8" stroke-linecap="round" stroke-linejoin="round" filter="url(#glow)"/>
<path d="M 150.88,188.97 L 150.12,192.02 L 150.88,197.35 L 154.69,203.44 L 162.31,205.73 L 168.40,205.73 L 174.50,207.25 L 185.16,211.82 L 191.25,216.39 L 192.78,214.87 L 192.78,202.68 L 190.49,195.06 L 187.45,189.73 L 182.11,185.16 L 172.97,181.35 L 166.12,180.59 L 156.21,183.64" fill="none" stroke="#00D4FF" stroke-width="3.8" stroke-linecap="round" stroke-linejoin="round" filter="url(#glow)"/>
<path d="M 294.09,169.93 L 313.89,179.83 L 335.22,188.21 L 331.41,192.02 L 332.93,204.96 L 337.50,220.20 L 343.60,233.15 L 347.41,248.38 L 346.64,290.28 L 344.36,312.37 L 339.03,343.60 L 334.46,361.12 L 328.36,377.88 L 317.70,396.92 L 308.56,406.06 L 300.94,406.06 L 295.61,403.01 L 288.75,396.16 L 277.33,367.21 L 271.23,355.02 L 262.09,340.55 L 250.67,326.08 L 238.48,313.89 L 219.44,300.18 L 211.06,292.56 L 201.92,279.61 L 196.59,268.95 L 194.30,259.81 L 192.02,257.52 L 188.97,257.52 L 188.21,255.24 L 188.21,257.52 L 191.25,257.52 L 194.30,260.57 L 196.59,268.95 L 201.92,280.38 L 211.06,293.32 L 218.68,300.18 L 237.72,313.89 L 250.67,326.84 L 262.09,341.31 L 271.23,355.79 L 280.38,374.07 L 288.75,396.92 L 294.85,403.01 L 300.94,406.06 L 310.84,405.30 L 317.70,397.68 L 326.08,383.21 L 334.46,361.12 L 339.03,343.60 L 342.84,323.03 L 346.64,290.28 L 347.41,248.38 L 344.36,235.43 L 337.50,220.20 L 332.17,201.16 L 331.41,192.02 L 335.22,188.97 L 335.22,186.68 L 333.70,187.45 L 321.51,182.88" fill="none" stroke="#00D4FF" stroke-width="3.8" stroke-linecap="round" stroke-linejoin="round" filter="url(#glow)"/>
<path d="M 252.19,166.12 L 255.24,169.16" fill="none" stroke="#00D4FF" stroke-width="3.8" stroke-linecap="round" stroke-linejoin="round" filter="url(#glow)"/>
<path d="M 248.38,163.07 L 250.67,165.36" fill="none" stroke="#00D4FF" stroke-width="3.8" stroke-linecap="round" stroke-linejoin="round" filter="url(#glow)"/>
<path d="M 225.53,163.07 L 221.72,166.88 L 220.96,175.26 L 230.86,179.83 L 237.72,187.45 L 240.00,192.78 L 240.00,201.92 L 238.48,206.49 L 234.67,211.06 L 230.86,211.06 L 228.58,208.77 L 228.58,204.96 L 230.86,200.39 L 230.86,194.30 L 229.34,190.49 L 224.01,185.92 L 219.44,184.40 L 212.58,184.40 L 201.16,188.97 L 198.87,191.25 L 201.92,201.92 L 201.92,216.39 L 200.39,224.77 L 198.11,229.34 L 185.92,243.05 L 198.11,230.10 L 200.39,224.77 L 201.92,216.39 L 201.92,201.92 L 198.87,192.78 L 199.63,190.49 L 209.54,185.16 L 219.44,184.40 L 225.53,187.45 L 229.34,191.25 L 230.86,194.30 L 230.86,200.39 L 229.34,202.68 L 227.82,198.11 L 224.01,194.30 L 217.15,194.30 L 212.58,198.11 L 211.82,200.39 L 212.58,214.11 L 210.30,224.01 L 205.73,232.39 L 193.54,246.10 L 189.73,254.48 L 193.54,246.86 L 205.73,233.15 L 208.77,227.82 L 212.58,214.11 L 211.82,200.39 L 217.15,194.30 L 223.25,194.30 L 226.29,196.59 L 229.34,202.68 L 228.58,209.54 L 230.10,211.06 L 235.43,211.06 L 238.48,206.49 L 240.00,201.92 L 240.00,192.78 L 238.48,188.21 L 231.62,179.83 L 220.96,174.50 L 220.96,169.16 L 222.48,166.12 L 225.53,163.07 L 230.10,163.07 L 240.77,169.16 L 249.91,177.54 L 257.52,191.25 L 256.76,202.68 L 251.43,216.39 L 236.20,233.91 L 229.34,246.10 L 224.77,262.86 L 225.53,277.33 L 228.58,286.47 L 234.67,296.37 L 263.62,324.55 L 272.00,335.22 L 279.61,348.17 L 281.90,350.45 L 286.47,350.45 L 288.75,347.41 L 288.75,345.12 L 285.71,338.27 L 275.04,323.79 L 274.28,319.22 L 268.19,308.56 L 254.48,293.32 L 246.86,280.38 L 245.34,275.04 L 246.10,259.81 L 252.19,247.62 L 264.38,230.10 L 276.57,219.44 L 288.75,214.87 L 301.70,215.63 L 316.94,220.96 L 320.75,220.96 L 322.27,219.44 L 322.27,216.39 L 316.94,211.06 L 309.32,206.49 L 297.13,202.68 L 278.85,203.44 L 274.28,199.63 L 272.76,192.78 L 278.09,185.92 L 279.61,179.83 L 283.42,174.50 L 292.56,168.40 L 304.75,163.83 L 319.22,172.21 L 335.98,178.30 L 326.08,175.26 L 305.51,163.83 L 295.61,166.88 L 282.66,174.50 L 280.38,177.54 L 278.85,183.64 L 275.80,188.97 L 271.23,193.54 L 266.66,195.82 L 264.38,210.30 L 259.81,220.20 L 245.34,236.96 L 236.20,253.71 L 233.91,264.38 L 233.91,271.23 L 235.43,278.85 L 239.24,287.23 L 272.76,321.51 L 270.47,317.70 L 242.29,290.28 L 236.96,282.66 L 234.67,275.80 L 233.91,264.38 L 237.72,249.91 L 245.34,237.72 L 259.81,220.96 L 264.38,210.30 L 266.66,196.59 L 272.76,192.78 L 274.28,200.39 L 276.57,202.68 L 300.94,203.44 L 311.61,208.01 L 322.27,217.15 L 322.27,218.68 L 319.98,220.96 L 316.94,220.96 L 301.70,215.63 L 288.75,214.87 L 275.80,219.44 L 264.38,229.34 L 252.19,246.86 L 246.10,259.81 L 245.34,275.04 L 249.14,285.71 L 254.48,294.09 L 268.19,309.32 L 274.28,319.98 L 275.04,324.55 L 281.14,332.17 L 288.75,345.12 L 288.75,347.41 L 285.71,350.45 L 282.66,350.45 L 263.62,323.79 L 234.67,295.61 L 228.58,286.47 L 226.29,280.38 L 224.77,272.00 L 224.77,262.86 L 227.05,252.19 L 236.20,234.67 L 251.43,217.15 L 256.76,202.68 L 257.52,191.25 L 253.71,182.11 L 245.34,172.21 L 233.91,164.59 L 230.10,163.07" fill="none" stroke="#00D4FF" stroke-width="3.8" stroke-linecap="round" stroke-linejoin="round" filter="url(#glow)"/>
<path d="M 406.06,159.26 L 406.06,170.69" fill="none" stroke="#00D4FF" stroke-width="3.8" stroke-linecap="round" stroke-linejoin="round" filter="url(#glow)"/>
<path d="M 217.91,156.98 L 215.63,159.26" fill="none" stroke="#00D4FF" stroke-width="3.8" stroke-linecap="round" stroke-linejoin="round" filter="url(#glow)"/>
<path d="M 224.01,153.93 L 227.05,153.93" fill="none" stroke="#00D4FF" stroke-width="3.8" stroke-linecap="round" stroke-linejoin="round" filter="url(#glow)"/>
<path d="M 184.40,150.88 L 188.21,154.69" fill="none" stroke="#00D4FF" stroke-width="3.8" stroke-linecap="round" stroke-linejoin="round" filter="url(#glow)"/>
<path d="M 394.63,140.22 L 399.96,145.55" fill="none" stroke="#00D4FF" stroke-width="3.8" stroke-linecap="round" stroke-linejoin="round" filter="url(#glow)"/>
<path d="M 121.18,134.89 L 118.89,137.17" fill="none" stroke="#00D4FF" stroke-width="3.8" stroke-linecap="round" stroke-linejoin="round" filter="url(#glow)"/>
<path d="M 214.11,125.75 L 217.91,125.75" fill="none" stroke="#00D4FF" stroke-width="3.8" stroke-linecap="round" stroke-linejoin="round" filter="url(#glow)"/>
<path d="M 179.07,125.75 L 183.64,125.75" fill="none" stroke="#00D4FF" stroke-width="3.8" stroke-linecap="round" stroke-linejoin="round" filter="url(#glow)"/>
<path d="M 129.55,125.75 L 122.70,132.60" fill="none" stroke="#00D4FF" stroke-width="3.8" stroke-linecap="round" stroke-linejoin="round" filter="url(#glow)"/>
<path d="M 204.96,124.98 L 211.06,124.98" fill="none" stroke="#00D4FF" stroke-width="3.8" stroke-linecap="round" stroke-linejoin="round" filter="url(#glow)"/>
<path d="M 195.82,124.22 L 202.68,124.22" fill="none" stroke="#00D4FF" stroke-width="3.8" stroke-linecap="round" stroke-linejoin="round" filter="url(#glow)"/>
<path d="M 134.12,121.94 L 131.84,124.22" fill="none" stroke="#00D4FF" stroke-width="3.8" stroke-linecap="round" stroke-linejoin="round" filter="url(#glow)"/>
<path d="M 118.13,160.02 L 121.18,150.88 L 128.03,140.98 L 141.74,128.03 L 150.88,121.94 L 153.93,121.18 L 158.50,125.75 L 166.12,127.27 L 168.40,129.55 L 172.97,150.88 L 176.78,156.98 L 182.11,162.31 L 198.11,169.16 L 203.44,169.16 L 205.73,166.12 L 202.68,169.16 L 198.11,169.16 L 182.88,162.31 L 176.78,156.21 L 172.21,148.60 L 167.64,128.03 L 162.31,127.27 L 153.93,121.18 L 151.64,121.18 L 137.17,131.08 L 128.03,140.22 L 120.41,151.64 L 118.13,160.02 L 118.89,169.16 L 123.46,178.30 L 128.79,183.64 L 135.65,182.11 L 145.55,182.11 L 153.17,175.26 L 157.74,172.97 L 165.36,171.45 L 173.73,172.21 L 181.35,174.50 L 188.97,179.07 L 192.78,182.88 L 195.06,182.88 L 201.92,178.30 L 211.82,175.26 L 212.58,165.36 L 210.30,166.12 L 212.58,166.88 L 211.82,174.50 L 210.30,176.02 L 201.92,178.30 L 194.30,182.88 L 183.64,175.26 L 173.73,172.21 L 165.36,171.45 L 152.41,175.26 L 144.79,182.11 L 135.65,182.11 L 129.55,183.64 L 123.46,177.54 L 119.65,171.45" fill="none" stroke="#00D4FF" stroke-width="3.8" stroke-linecap="round" stroke-linejoin="round" filter="url(#glow)"/>
<path d="M 160.02,108.99 L 163.07,105.18 L 166.12,103.66 L 182.11,99.85 L 195.06,98.32 L 222.48,99.09 L 250.67,104.42 L 268.19,109.75 L 291.04,118.89 L 314.65,131.08 L 327.60,139.46 L 344.36,146.31 L 352.74,147.84 L 365.69,147.84 L 376.35,144.79 L 385.49,145.55 L 393.11,152.41 L 396.16,157.74 L 396.92,170.69 L 393.11,178.30 L 387.78,183.64 L 380.16,186.68 L 374.07,185.92 L 367.21,180.59 L 366.45,172.21 L 373.30,163.83 L 383.21,159.26 L 383.97,155.45 L 381.68,151.64 L 377.11,151.64 L 371.02,153.93 L 364.16,158.50 L 358.07,159.26 L 346.64,156.21 L 335.22,150.12 L 330.65,150.12 L 328.36,153.17 L 328.36,155.45 L 331.41,159.26 L 342.84,164.59 L 355.79,167.64 L 358.07,169.16 L 356.55,173.73 L 354.26,174.50 L 342.07,171.45 L 328.36,166.12 L 294.09,147.07 L 265.14,132.60 L 241.53,122.70 L 227.05,118.13 L 204.96,115.08 L 183.64,115.84 L 172.21,118.13 L 164.59,118.13 L 160.02,113.56" fill="none" stroke="#00D4FF" stroke-width="3.8" stroke-linecap="round" stroke-linejoin="round" filter="url(#glow)"/>
<path d="M 160.02,108.99 L 160.02,114.32 L 163.83,118.13 L 172.21,118.13 L 183.64,115.84 L 204.96,115.08 L 227.05,118.13 L 241.53,122.70 L 261.33,131.08 L 293.32,147.07 L 323.03,163.83 L 339.79,170.69 L 356.55,174.50 L 358.07,168.40 L 342.84,164.59 L 332.17,159.26 L 328.36,155.45 L 328.36,153.17 L 331.41,150.12 L 334.46,150.12 L 346.64,156.21 L 358.07,159.26 L 364.16,158.50 L 374.83,152.41 L 380.92,151.64 L 383.97,155.45 L 383.21,158.50 L 372.54,163.83 L 368.73,167.64 L 366.45,172.21 L 367.21,181.35 L 370.26,184.40 L 374.07,185.92 L 380.16,186.68 L 388.54,183.64 L 394.63,176.78 L 396.92,170.69 L 396.92,160.02 L 394.63,153.93 L 388.54,147.07 L 385.49,145.55 L 376.35,144.79 L 365.69,147.84 L 352.74,147.84 L 344.36,146.31 L 333.70,142.50 L 315.41,131.08 L 291.04,118.89 L 268.19,109.75 L 250.67,104.42 L 222.48,99.09 L 195.06,98.32 L 182.11,99.85 L 162.31,105.18" fill="none" stroke="#00D4FF" stroke-width="3.8" stroke-linecap="round" stroke-linejoin="round" filter="url(#glow)"/>
<path d="M 196.59,89.18 L 202.68,89.18" fill="none" stroke="#00D4FF" stroke-width="3.8" stroke-linecap="round" stroke-linejoin="round" filter="url(#glow)"/>
</svg>